<svg width="64" height="64" viewBox="0 0 64 64" fill="none" xmlns="http://www.w3.org/2000/svg">
<path d="M32.6048 41.54C34.4768 41.54 36.1988 41.048 37.7708 40.064C39.3548 39.08 40.5128 37.7 41.2448 35.924L36.3488 34.52C35.6048 36.152 34.2608 36.968 32.3168 36.968C30.9848 36.968 29.9348 36.596 29.1668 35.852C28.4108 35.108 27.9428 34.04 27.7628 32.648H41.4068C41.6108 30.296 41.3708 28.25 40.6868 26.51C40.0028 24.77 38.9468 23.42 37.5188 22.46C36.0908 21.5 34.3568 21.02 32.3168 21.02C30.3968 21.02 28.6988 21.458 27.2228 22.334C25.7468 23.198 24.5888 24.416 23.7488 25.988C22.9088 27.56 22.4888 29.408 22.4888 31.532C22.4888 33.476 22.9148 35.204 23.7668 36.716C24.6308 38.216 25.8188 39.398 27.3308 40.262C28.8548 41.114 30.6128 41.54 32.6048 41.54ZM32.5328 25.268C33.7088 25.268 34.6088 25.562 35.2328 26.15C35.8688 26.738 36.2768 27.692 36.4568 29.012H27.8888C28.4048 26.516 29.9528 25.268 32.5328 25.268Z" fill="white"/>
<rect x="3" y="3" width="58" height="58" rx="29" stroke="white" stroke-width="6"/>
</svg>
